<svg width="33" height="37" viewBox="0 0 33 37" fill="none" xmlns="http://www.w3.org/2000/svg">
<path d="M9.91657 0.815186C9.84876 0.815186 9.78375 0.824773 9.71874 0.832563V0.815186H2.49341H2.49271C1.65805 0.815186 0.980679 1.39519 0.980679 2.11121V2.11421L0.97998 35.5144C0.97998 35.5162 0.97998 35.518 0.97998 35.5198C0.97998 36.2352 1.65735 36.8152 2.49201 36.8152H9.91587C10.7505 36.8152 11.4272 36.2352 11.4272 35.5198C11.4272 35.518 11.4265 35.5162 11.4265 35.5144L11.4272 2.11421C11.4272 2.11301 11.4279 2.11181 11.4279 2.11121C11.4279 1.39519 10.7505 0.815186 9.91657 0.815186Z" fill="black"/>
<path d="M32.0903 35.5144V2.11421C32.0903 2.11301 32.091 2.11181 32.091 2.11121C32.091 1.39519 31.4136 0.815186 30.5796 0.815186C30.5118 0.815186 30.4468 0.824773 30.3818 0.832563V0.815186H23.1558C22.3211 0.815186 21.6438 1.39519 21.6438 2.11121V2.11421L21.6431 35.5144C21.6431 35.5162 21.6431 35.518 21.6431 35.5198C21.6431 36.2352 22.3204 36.8152 23.1551 36.8152H30.5776C31.4122 36.8152 32.0889 36.2352 32.0889 35.5198C32.0903 35.518 32.0896 35.5162 32.0903 35.5144Z" fill="black"/>
</svg>
