<svg width="34" height="43" viewBox="0 0 34 43" fill="none" xmlns="http://www.w3.org/2000/svg">
<path d="M17.1384 0.815186C26.4074 0.815186 33.9214 10.2172 33.9214 21.8152C33.9214 33.4132 26.4074 42.8152 17.1384 42.8152C7.86944 42.8152 0.355469 33.4132 0.355469 21.8152C0.355469 10.2172 7.86944 0.815186 17.1384 0.815186ZM17.1384 39.163C24.7954 39.163 31.0026 31.3961 31.0026 21.8152C31.0026 12.2342 24.7954 4.46734 17.1384 4.46734C9.48146 4.46734 3.27423 12.2342 3.27423 21.8152C3.28334 31.3915 9.4851 39.1516 17.1375 39.163H17.1384L17.1384 39.163ZM11.5052 31.939V11.6914L25.6525 21.8153L11.5052 31.939ZM14.424 17.9877V25.6499L19.7741 21.8151L14.424 17.9877Z" fill="black"/>
</svg>
