<svg width="35" height="35" viewBox="0 0 35 35" fill="none" xmlns="http://www.w3.org/2000/svg">
<path d="M11.06 10.8952C11.06 11.8192 10.304 12.5752 9.37996 12.5752H2.65996C1.73596 12.5752 0.979957 11.8192 0.979957 10.8952V4.17519C0.979957 3.25119 1.73596 2.49519 2.65996 2.49519C3.58396 2.49519 4.33996 3.25119 4.33996 4.17519V7.61919C7.39756 3.50319 12.2528 0.815186 17.78 0.815186C27.0536 0.815186 34.58 8.34159 34.58 17.6152C34.58 26.8888 27.0536 34.4152 17.78 34.4152C8.50636 34.4152 0.979957 26.8888 0.979957 17.6152C0.979957 16.6912 1.73596 15.9352 2.65996 15.9352C3.58396 15.9352 4.33996 16.6912 4.33996 17.6152C4.33996 25.0408 10.3544 31.0552 17.78 31.0552C25.2056 31.0552 31.22 25.0408 31.22 17.6152C31.22 10.1896 25.2056 4.17519 17.78 4.17519C13.5296 4.17519 9.76636 6.14079 7.29676 9.21519H9.37996C10.304 9.21519 11.06 9.97119 11.06 10.8952Z" fill="black"/>
</svg>
